<svg width="124" height="60" viewBox="0 0 124 60" fill="none" xmlns="http://www.w3.org/2000/svg">
<path d="M1.70038 29.8209C1.97048 30.222 2.55518 30.4806 2.97721 30.7316C3.55578 31.0776 4.83107 31.8597 6.16622 32.6281V57.9796L14.1832 53.3265C14.8646 52.6408 15.0611 51.5969 15.1347 50.6602C15.4294 46.9026 15.3741 40.927 15.1378 37.1342C15.0626 35.9342 14.9859 34.5398 13.9884 33.7148L13.373 33.3628L38.0057 19.1418C38.1975 18.9245 38.6472 18.1714 38.6917 17.9235V8.69389L1.70191 29.8179L1.70038 29.8209Z" fill="#2A3439"/>
<path d="M29.7216 29.7153C29.427 33.473 29.4822 39.4485 29.7186 43.2413C29.7938 44.4413 29.8705 45.8357 30.868 46.6607L38.6886 51.1286V22.3959L30.6716 27.049C29.9902 27.7347 29.7938 28.7786 29.7201 29.7153H29.7216Z" fill="#2A3439"/>
<path d="M26.8687 29.247L26.8364 29.2653C26.4328 29.3388 26.0338 29.5959 25.6778 29.7857C24.803 30.251 21.6954 31.9546 19.906 33.0949L19.444 33.3505C19.3458 33.424 19.2384 33.5158 19.1264 33.6184C18.9023 33.7806 18.7396 33.9153 18.6629 34.0118C18.6276 34.0561 18.5217 34.2337 18.4035 34.4419C18.1196 34.8413 17.9078 35.2684 17.9078 35.622V51.1301C17.9355 51.1271 17.9615 51.1209 17.9892 51.1179V51.1301L18.0214 51.1117C18.425 51.0383 18.824 50.7811 19.1801 50.5913C20.0548 50.126 23.1625 48.4225 24.9519 47.2822L25.4138 47.0265C25.512 46.9531 25.6195 46.8612 25.7315 46.7587C25.9556 46.5964 26.1182 46.4602 26.195 46.3653C26.2303 46.3209 26.3362 46.1434 26.4543 45.9352C26.7382 45.5357 26.95 45.1087 26.95 44.7551V29.247C26.9224 29.25 26.8963 29.2561 26.8687 29.2592V29.247Z" fill="#2A3439"/>
<path d="M48.0208 35.6097L44.3208 25.1525H46.7563L48.3155 29.9832C48.7882 31.4434 49.1488 32.6847 49.3913 33.7531H49.422C49.6368 32.7781 50.0451 31.5 50.5454 30.0168L52.1813 25.1525H54.494L50.6958 35.6097H48.0224H48.0208Z" fill="#2A3439"/>
<path d="M58.3966 33.1944L57.5787 35.6097H55.3503L58.9107 25.1525H61.7591L65.4729 35.6097H63.0896L62.2271 33.1944H58.3966ZM61.7391 31.3408C60.9948 29.1337 60.5206 27.724 60.2674 26.7842H60.252C59.9942 27.8158 59.4694 29.4551 58.8739 31.3408H61.7406H61.7391Z" fill="#2A3439"/>
<path d="M68.5376 25.1525H70.8043V33.7561H76.0267L75.7674 35.6097H68.5361V25.1525H68.5376Z" fill="#2A3439"/>
<path d="M86.3058 31.1005H81.2921V33.7576H86.823L86.5545 35.6112H79.0914V25.1541H86.5253V27.0076H81.2906V29.2485H86.3043V31.102L86.3058 31.1005Z" fill="#2A3439"/>
<path d="M92.6685 27.0061H89.4825V25.1525H98.1104V27.0061H94.9367V35.6097H92.6685V27.0061Z" fill="#2A3439"/>
<path d="M44.5771 40.5735H48.914C51.1423 40.5735 52.654 41.824 52.654 43.8122C52.654 46.0837 50.929 47.126 48.8603 47.126H46.8453V51.0306H44.5771V40.5735ZM46.8468 45.326H48.5764C49.6261 45.326 50.3673 44.9235 50.3673 43.8551C50.3673 42.7867 49.5847 42.3735 48.624 42.3735H46.8468V45.326Z" fill="#2A3439"/>
<path d="M57.1428 48.6153L56.3249 51.0306H54.0966L57.657 40.5735H60.5053L64.2191 51.0306H61.8358L60.9733 48.6153H57.1428ZM60.4853 46.7617C59.741 44.5546 59.2668 43.1449 59.0136 42.2051H58.9982C58.7404 43.2367 58.2156 44.876 57.6201 46.7617H60.4869H60.4853Z" fill="#2A3439"/>
<path d="M69.4983 46.8459V51.0306H67.2823V40.5735H71.8893C74.1759 40.5735 75.4067 41.8301 75.4067 43.4449C75.4067 44.8485 74.641 45.6076 73.8828 45.9184C74.4015 46.1097 75.1858 46.6485 75.1858 48.5204V49.0362C75.1858 49.7388 75.1919 50.5408 75.3361 51.0291H73.1876C73.0035 50.5745 72.9682 49.7908 72.9682 48.6811V48.528C72.9682 47.3847 72.6781 46.8428 70.9885 46.8428H69.4968L69.4983 46.8459ZM69.4983 45.0459H71.3998C72.6413 45.0459 73.1201 44.5745 73.1201 43.7005C73.1201 42.8265 72.563 42.3735 71.455 42.3735H69.4999V45.0459H69.4983Z" fill="#2A3439"/>
<path d="M79.1452 40.5735H81.3857V45.2403C82.0763 44.4352 84.2341 42.0765 85.56 40.5735H88.2748L84.0622 44.9204L88.4283 51.0306H85.7089L82.4907 46.3852L81.3842 47.4398V51.0306H79.1436V40.5735H79.1452Z" fill="#2A3439"/>
<path d="M93.5172 40.5735V51.0306H91.2505V40.5735H93.5172Z" fill="#2A3439"/>
<path d="M97.7452 51.0306V40.5735H100.555C101.864 42.9214 104.286 47.1566 104.766 48.2954H104.795C104.677 47.2041 104.679 45.3888 104.679 43.673V40.5735H106.734V51.0306H104.068C102.942 48.9872 100.259 44.123 99.7402 42.9153H99.7111C99.7878 43.8306 99.8124 45.9781 99.8124 47.8515V51.0321H97.7437L97.7452 51.0306Z" fill="#2A3439"/>
<path d="M120.068 51.0306H118.406C118.319 50.7092 118.262 50.3495 118.233 49.999C117.651 50.7811 116.628 51.2051 115.171 51.2051C112.128 51.2051 110.428 48.9107 110.428 45.9321C110.428 42.7883 112.261 40.4204 115.566 40.4204C118.263 40.4204 119.852 41.9388 120.105 43.7219H117.838C117.624 43.0209 117.07 42.1928 115.535 42.1928C113.382 42.1928 112.768 43.9883 112.768 45.8326C112.768 47.677 113.471 49.4036 115.549 49.4036C117.487 49.4036 117.845 48.0612 117.845 47.126V47.0311H115.546V45.1775H120.068V51.0275V51.0306Z" fill="#2A3439"/>
<path d="M47.961 15.2832C48.182 16.1372 48.7406 16.7495 49.9806 16.7495C52.0785 16.7495 52.3209 13.9714 52.4207 12.2388C51.7838 13.099 50.4686 13.373 49.4204 13.373C46.6443 13.373 44.4405 11.576 44.4405 8.54235C44.4405 5.50867 46.5031 3.26939 49.9499 3.26939C54.4249 3.26939 55.6312 6.65204 55.6312 10.4526C55.6312 15.4393 54.3283 19.099 49.7765 19.099C46.3849 19.099 45.0237 17.175 44.7766 15.2832H47.961ZM47.7154 8.29286C47.7154 10.1128 48.713 10.9592 50.0358 10.9592C51.3587 10.9592 52.3041 10.4281 52.3041 8.72143C52.3041 7.0148 51.7746 5.63572 49.9898 5.63572C48.5626 5.63572 47.7139 6.64898 47.7139 8.29286H47.7154Z" fill="#B87332"/>
<path d="M69.1545 10.8077C69.1545 15.1929 67.9575 19.1204 63.4794 19.1204C59.0013 19.1204 57.7766 15.277 57.7766 10.9653C57.7766 6.65358 59.4617 3.27245 63.5423 3.27245C67.6229 3.27245 69.1545 6.42092 69.1545 10.8077ZM61.093 10.8842C61.093 14.5515 61.6317 16.7296 63.4809 16.7296C65.4484 16.7296 65.8397 14.4551 65.8397 10.8735C65.8397 7.50613 65.2611 5.66327 63.5224 5.66327C61.7836 5.66327 61.0915 7.30102 61.0915 10.8857L61.093 10.8842Z" fill="#B87332"/>
</svg>
